<?xml version="1.0" standalone="no"?>
<!DOCTYPE svg PUBLIC "-//W3C//DTD SVG 20010904//EN"
 "http://www.w3.org/TR/2001/REC-SVG-20010904/DTD/svg10.dtd">
<svg version="1.0" xmlns="http://www.w3.org/2000/svg"
 width="225.000000pt" height="225.000000pt" viewBox="0 0 225.000000 225.000000"
 preserveAspectRatio="xMidYMid meet">

<g transform="translate(0.000000,225.000000) scale(0.100000,-0.100000)"
fill="#000000" stroke="none">
<path d="M1013 1966 c-133 -43 -240 -155 -283 -295 -24 -78 -26 -206 -5 -279
l16 -52 114 0 115 0 0 -120 0 -119 57 -17 c231 -67 477 112 513 374 20 145
-32 305 -132 405 -73 73 -161 110 -268 114 -53 2 -101 -2 -127 -11z m237 -164
c104 -53 166 -170 158 -301 -8 -148 -115 -266 -260 -286 l-48 -7 0 71 0 71 55
0 c84 0 137 35 170 112 32 79 7 172 -61 224 -36 28 -42 29 -166 32 l-128 4 0
-116 0 -116 -65 0 -65 0 0 38 c0 93 58 207 131 257 86 60 183 66 279 17z m-58
-229 c42 -38 6 -103 -57 -103 l-35 0 0 60 0 60 37 0 c20 0 45 -7 55 -17z"/>
<path d="M180 965 c0 -16 6 -25 15 -25 13 0 15 -20 15 -120 0 -100 -2 -120
-15 -120 -9 0 -15 -9 -15 -25 0 -25 1 -25 80 -25 75 0 80 1 80 21 0 12 -8 23
-20 26 -14 4 -20 14 -20 34 0 28 1 29 51 29 28 0 66 7 84 16 76 36 78 161 3
200 -19 10 -62 14 -143 14 l-115 0 0 -25z m202 -42 c22 -20 24 -76 3 -93 -9
-7 -31 -15 -50 -17 l-35 -3 0 65 0 65 32 0 c17 0 40 -7 50 -17z"/>
<path d="M528 865 c-18 -10 -28 -24 -28 -39 0 -41 53 -45 63 -5 4 16 12 20 38
17 67 -6 40 -39 -44 -53 -21 -3 -47 -15 -58 -26 -56 -56 23 -141 105 -111 21
8 32 9 36 1 4 -6 27 -9 51 -7 37 2 45 7 47 26 2 12 -1 22 -6 22 -5 0 -12 34
-14 75 -2 53 -8 80 -21 92 -23 24 -132 29 -169 8z m112 -121 c0 -46 -44 -71
-70 -39 -10 12 -10 18 0 29 10 13 21 17 63 25 4 0 7 -6 7 -15z"/>
<path d="M740 853 c0 -13 5 -23 10 -23 6 0 10 -37 10 -90 l0 -90 40 0 39 0 3
88 c3 79 5 87 23 87 18 0 20 -8 23 -87 l3 -88 39 0 40 0 0 85 c0 69 3 87 16
92 25 9 34 -16 34 -99 l0 -78 50 0 c43 0 50 3 50 20 0 11 -4 20 -10 20 -6 0
-10 26 -10 59 0 33 -4 71 -9 84 -13 33 -61 49 -101 35 -22 -7 -38 -7 -58 1
-21 9 -36 9 -56 1 -20 -7 -32 -7 -41 0 -7 6 -32 10 -54 9 -35 -3 -41 -6 -41
-26z"/>
<path d="M1120 855 c0 -14 5 -25 10 -25 6 0 10 -45 10 -115 0 -70 -4 -115 -10
-115 -5 0 -10 -11 -10 -25 0 -24 3 -25 60 -25 57 0 60 1 60 25 0 14 -4 25 -10
25 -5 0 -10 14 -10 31 0 26 3 30 18 23 30 -14 81 -8 102 11 26 24 43 86 34
130 -12 67 -79 104 -135 75 -13 -7 -19 -7 -19 0 0 5 -22 10 -50 10 -47 0 -50
-2 -50 -25z m164 -41 c9 -25 7 -83 -4 -105 -23 -42 -60 -10 -60 51 0 17 5 40
10 51 13 23 46 25 54 3z"/>
<path d="M1464 870 c-61 -25 -86 -129 -44 -183 40 -51 142 -59 189 -16 22 21
24 28 15 53 -9 24 -37 19 -62 -9 -26 -30 -57 -32 -72 -6 -19 37 -12 41 70 41
89 0 93 4 65 64 -27 56 -99 81 -161 56z m72 -38 c6 -4 13 -15 17 -24 5 -15 0
-18 -33 -18 -43 0 -45 2 -30 31 11 20 27 24 46 11z"/>
<path d="M1647 873 c-11 -10 -8 -43 3 -43 6 0 10 -37 10 -90 l0 -90 40 0 40 0
0 80 c0 82 4 92 25 64 16 -22 53 -10 61 21 12 48 -40 87 -73 54 -8 -8 -13 -8
-17 0 -8 12 -78 15 -89 4z"/>
<path d="M1888 865 c-80 -45 -75 -170 8 -210 75 -36 162 13 171 97 5 42 2 49
-29 83 -27 30 -42 38 -78 41 -29 3 -55 -1 -72 -11z m91 -71 c11 -41 1 -84 -23
-98 -39 -24 -64 74 -31 121 20 29 42 20 54 -23z"/>
<path d="M490 296 l0 -104 28 -3 c15 -2 302 -4 637 -4 l610 0 0 105 0 105
-637 3 -638 2 0 -104z m1268 -3 l3 -93 -446 0 -445 0 0 88 c0 49 3 92 7 95 3
4 203 6 442 5 l436 -3 3 -92z m-1028 21 c0 -4 -11 -3 -25 0 -14 4 -25 2 -25
-3 0 -5 11 -12 25 -15 16 -4 25 -13 25 -26 0 -26 -38 -36 -59 -15 -15 15 -14
16 12 10 17 -5 27 -3 27 4 0 6 -6 11 -14 11 -7 0 -20 7 -27 16 -11 14 -10 18
5 30 13 9 24 10 37 3 11 -5 19 -12 19 -15z m100 -24 c0 -49 -61 -65 -75 -19
-9 27 3 57 23 62 30 6 52 -12 52 -43z m-240 4 c0 -45 24 -42 28 4 4 39 22 42
22 4 0 -41 -21 -66 -48 -58 -18 6 -22 15 -22 47 0 21 5 39 10 39 6 0 10 -16
10 -36z"/>
<path d="M970 290 c0 -27 5 -50 10 -50 6 0 10 23 10 50 0 28 -4 50 -10 50 -5
0 -10 -22 -10 -50z"/>
<path d="M1069 313 c0 -27 -1 -27 -11 -5 -19 38 -38 27 -38 -23 0 -25 5 -45
10 -45 6 0 10 10 10 22 l0 22 16 -22 c23 -34 34 -27 34 22 0 49 -20 76 -21 29z"/>
<path d="M1113 327 c-3 -5 -1 -12 5 -16 6 -3 12 -20 14 -36 4 -40 22 -38 26 3
2 17 8 32 13 32 6 0 9 6 7 13 -5 14 -57 17 -65 4z"/>
<path d="M1207 333 c-4 -3 -7 -26 -7 -50 0 -43 0 -43 35 -43 25 0 35 4 35 16
0 8 -4 13 -8 10 -4 -2 -14 -1 -22 5 -12 7 -10 9 8 9 12 0 22 5 22 10 0 6 -9
10 -20 10 -11 0 -20 5 -20 10 0 6 3 9 8 9 19 -3 33 2 27 11 -7 11 -48 14 -58
3z"/>
<path d="M1297 334 c-11 -12 -8 -94 4 -94 6 0 13 9 16 20 l6 21 14 -21 c8 -11
18 -20 24 -20 12 0 12 87 -1 95 -6 4 -10 -6 -10 -22 l0 -28 -23 28 c-12 16
-26 25 -30 21z"/>
<path d="M1402 328 c-19 -19 -14 -37 13 -44 14 -3 25 -11 25 -16 0 -6 -11 -7
-25 -4 -14 4 -25 2 -25 -4 0 -12 45 -24 59 -15 18 11 12 43 -9 50 -28 9 -25
25 3 17 20 -5 21 -4 8 11 -16 20 -32 22 -49 5z"/>
<path d="M1485 328 c-9 -23 -2 -83 10 -83 14 0 19 75 6 88 -7 7 -12 5 -16 -5z"/>
<path d="M1528 335 c-9 -9 18 -89 30 -93 12 -4 25 24 38 73 9 34 -12 32 -24
-2 l-10 -28 -11 28 c-11 28 -14 31 -23 22z"/>
<path d="M1632 328 c-7 -7 -12 -27 -12 -45 0 -27 5 -34 27 -39 44 -12 71 46
37 80 -19 19 -36 20 -52 4z m41 -32 c6 -16 -16 -40 -26 -29 -4 3 -7 15 -7 25
0 21 25 24 33 4z"/>
<path d="M781 311 c-17 -11 -10 -46 9 -46 17 0 26 33 13 46 -4 4 -14 4 -22 0z"/>
</g>
</svg>
